<?xml version="1.0" encoding="UTF-8" standalone="no"?>
<!DOCTYPE svg PUBLIC "-//W3C//DTD SVG 1.1//EN" "http://www.w3.org/Graphics/SVG/1.1/DTD/svg11.dtd">
<svg width="100%" height="100%" viewBox="0 0 472 468" version="1.1" xmlns="http://www.w3.org/2000/svg" xmlns:xlink="http://www.w3.org/1999/xlink" xml:space="preserve" xmlns:serif="http://www.serif.com/" style="fill-rule:evenodd;clip-rule:evenodd;stroke-linecap:round;stroke-linejoin:round;stroke-miterlimit:1.5;">
    <g transform="matrix(1,0,0,1,-97.3805,-66.0201)">
        <path d="M109.665,242.286L370.389,242.286L370.389,225.437L340.032,225.437C320.35,225.437 316.622,211.123 312.746,200.835C308.869,190.547 306.066,168.912 275.693,168.912L136.951,168.912C108.323,168.912 109.665,171.462 109.665,242.286Z" style="fill:rgb(219,224,227);"/>
        <g transform="matrix(1.0053,0,0,0.987692,-2.80951,4.50159)">
            <path d="M529.794,281.446L529.794,483.44C529.794,500.108 516.499,513.64 500.123,513.64L138.635,513.64C122.259,513.64 108.963,500.108 108.963,483.44L108.963,188.916C108.963,172.248 122.259,158.715 138.635,158.715L409.213,158.715" style="fill:none;stroke:black;stroke-width:18.77px;"/>
        </g>
        <g transform="matrix(1,0,0,1,60.0325,0.954274)">
            <circle cx="97.968" cy="206.312" r="13.014"/>
        </g>
        <g transform="matrix(1,0,0,1,109.297,0.954274)">
            <circle cx="97.968" cy="206.312" r="13.014"/>
        </g>
        <g transform="matrix(1,0,0,1,158.561,0.954274)">
            <circle cx="97.968" cy="206.312" r="13.014"/>
        </g>
        <path d="M182.66,395.216L370.905,207.353C370.905,207.353 408.414,244.879 422.859,259.357C437.303,273.835 431.246,285.053 422.393,297.5C409.375,315.803 394.514,335.116 388.378,344.66C379.991,357.707 379.758,369.123 390.009,380.306C400.26,391.489 467.713,451.741 485.995,473.263C511.281,503.031 470.21,546.088 441.73,511.82C418.659,484.062 384.216,440.252 368.109,421.077C348.539,397.779 334.095,399.177 317.32,412.456C303.641,423.286 281.888,441.219 269.793,450.199C254.417,461.614 247.009,458.942 231.952,444.607C214.578,428.066 182.66,395.216 182.66,395.216Z" style="fill:rgb(73,127,173);"/>
        <path d="M220.523,433.513L410.925,247.478L371.109,207.353L182.66,393.589L220.523,433.513" style="fill:rgb(123,177,213);"/>
        <path d="M222.936,433.195L407.22,248.911" style="fill:none;stroke:black;stroke-width:18.67px;"/>
        <path d="M182.66,395.216L370.905,207.353C370.905,207.353 408.414,244.879 422.859,259.357C437.303,273.835 431.246,285.053 422.393,297.5C409.375,315.803 394.514,335.116 388.378,344.66C379.991,357.707 379.758,369.123 390.009,380.306C400.26,391.489 467.713,451.741 485.995,473.263C511.281,503.031 470.21,546.088 441.73,511.82C418.659,484.062 384.216,440.252 368.109,421.077C348.539,397.779 334.095,399.177 317.32,412.456C303.641,423.286 281.888,441.219 269.793,450.199C254.417,461.614 247.009,458.942 231.952,444.607C214.578,428.066 182.66,395.216 182.66,395.216Z" style="fill:none;stroke:black;stroke-width:18.67px;"/>
        <path d="M146.278,355.37C146.278,355.37 229.979,275.449 233.259,272.616C236.539,269.783 241.162,270.976 237.732,275.598C234.303,280.221 165.507,357.251 156.768,365.658C146.869,375.181 136.893,361.701 146.278,355.37Z" style="fill:rgb(219,224,227);"/>
        <path d="M445.035,66.021C440.489,65.834 446.227,94.053 432.212,111.647C418.196,129.241 396.691,126.09 396.874,130.285C397.049,134.314 415.5,129.544 430.87,147.73C443.114,162.219 442.202,196.042 445.333,194.252C448.464,192.462 448.976,164.993 459.349,150.116C470.681,133.864 494.388,133.864 494.09,129.54C493.792,125.216 474.835,128.846 460.392,113.585C445.99,98.368 449.804,66.217 445.035,66.021Z" style="fill:rgb(73,127,173);"/>
        <g transform="matrix(0.54106,0,0,0.54106,301.287,45.5487)">
            <path d="M445.035,66.021C440.489,65.834 446.227,94.053 432.212,111.647C418.196,129.241 396.691,126.09 396.874,130.285C397.049,134.314 415.5,129.544 430.87,147.73C443.114,162.219 442.202,196.042 445.333,194.252C448.464,192.462 448.976,164.993 459.349,150.116C470.681,133.864 494.388,133.864 494.09,129.54C493.792,125.216 474.835,128.846 460.392,113.585C445.99,98.368 449.804,66.217 445.035,66.021Z" style="fill:rgb(73,127,173);"/>
        </g>
        <g transform="matrix(0.810663,0,0,0.810663,147.485,101.829)">
            <path d="M445.035,66.021C440.489,65.834 446.227,94.053 432.212,111.647C418.196,129.241 396.691,126.09 396.874,130.285C397.049,134.314 415.5,129.544 430.87,147.73C443.114,162.219 442.202,196.042 445.333,194.252C448.464,192.462 448.976,164.993 459.349,150.116C470.681,133.864 494.388,133.864 494.09,129.54C493.792,125.216 474.835,128.846 460.392,113.585C445.99,98.368 449.804,66.217 445.035,66.021Z" style="fill:rgb(73,127,173);"/>
        </g>
    </g>
</svg>
